<svg width="16" height="16" viewBox="0 0 16 16" fill="none" xmlns="http://www.w3.org/2000/svg">
<path d="M8.3599 7.64V7.56L8.9999 3.72C8.9999 3.64 8.9999 3.64 9.0799 3.56C9.1599 3.56 9.1599 3.48 9.2399 3.48C9.3199 3.48 9.3199 3.48 9.3999 3.56C9.3999 3.64 9.4799 3.64 9.4799 3.72L8.9199 8.6C8.9199 8.76 8.8399 9 8.8399 9.24C8.8399 9.32 8.8399 9.48 8.8399 9.64C8.8399 9.72 8.9199 9.96 9.0799 10.12C9.3199 10.36 9.6399 10.52 9.9599 10.52C10.2799 10.52 10.5999 10.36 10.8399 10.12L12.0399 8.92L11.1599 8.04L10.0399 9.16C10.0399 9 10.0399 8.84 10.0399 8.68L10.5999 3.8C10.6799 3.08 10.1999 2.28 9.3999 2.2C8.9199 2.2 8.3599 2.44 8.1199 2.92V2.36C8.1199 1.56 7.4799 1 6.7599 1C5.9599 1 5.3999 1.64 5.3199 2.36V2.6C4.9999 2.36 4.5199 2.2 4.0399 2.28C3.2399 2.44 2.7599 3.16 2.9199 3.88L3.0799 4.92C2.7599 4.76 2.3599 4.68 1.9599 4.84C1.1599 5.08 0.839902 5.88 1.0799 6.6L2.7599 12.04V12.12C3.3199 13.8 4.8399 14.92 6.6799 14.92C7.7999 14.92 8.9199 14.52 9.7999 13.88C10.0399 13.72 10.4399 13.4 10.8399 13.08C11.2399 12.76 11.6399 12.28 12.0399 11.88C12.4399 11.48 12.8399 11.08 13.0799 10.84C13.2399 10.68 13.3199 10.6 13.3999 10.52C13.3999 10.44 13.4799 10.44 13.4799 10.44C14.1199 9.72 14.0399 8.76 13.3999 8.12C12.7599 7.48 11.7999 7.4 11.0799 8.12L11.9599 9C12.1199 8.84 12.3599 8.84 12.5199 9C12.7599 9.24 12.6799 9.48 12.5999 9.64L12.5199 9.72C12.4399 9.8 12.3599 9.88 12.1999 10.04C11.9599 10.36 11.5599 10.68 11.1599 11.08C10.7599 11.48 10.3599 11.88 9.9599 12.2C9.5599 12.52 9.3199 12.76 9.1599 12.92C8.4399 13.48 7.5599 13.72 6.6799 13.72C5.3999 13.72 4.2799 12.84 3.8799 11.72V11.64L2.1999 6.28C2.1999 6.2 2.1999 6.2 2.1999 6.12C2.1999 6.04 2.2799 6.04 2.2799 6.04C2.2799 6.04 2.3599 6.04 2.4399 6.04C2.5199 6.04 2.5999 6.04 2.5999 6.12L3.5599 8.68C3.5599 8.76 3.6399 8.84 3.7199 8.92C3.7999 9 3.8799 9.08 4.0399 9.08C4.1999 9.16 4.4399 9.08 4.5999 9C4.6799 8.92 4.7599 8.84 4.7599 8.76C4.7599 8.68 4.7599 8.68 4.8399 8.6C4.8399 8.52 4.8399 8.44 4.8399 8.44V8.36L4.1199 3.72C4.1199 3.64 4.1199 3.64 4.1199 3.56C4.1999 3.48 4.1999 3.48 4.2799 3.4C4.3599 3.4 4.3599 3.4 4.4399 3.4C4.5199 3.4 4.5199 3.48 4.5199 3.56L5.2399 7.48C5.2399 7.56 5.3199 7.72 5.3999 7.8C5.5599 7.96 5.7199 8.04 6.0399 8.04C6.2799 7.96 6.4399 7.8 6.4399 7.72C6.5199 7.64 6.5199 7.48 6.5199 7.4V2.36C6.5199 2.28 6.5999 2.2 6.7599 2.2C6.8399 2.2 6.9999 2.28 6.9999 2.36L7.0799 7.4L8.3599 7.64ZM7.0799 7.4C7.0799 7.48 7.0799 7.48 7.0799 7.4C7.0799 7.48 7.0799 7.64 7.1599 7.72C7.2399 7.88 7.3999 8.04 7.7199 8.04C7.9599 8.04 8.1199 7.88 8.1999 7.8C8.2799 7.72 8.3599 7.64 8.3599 7.56L7.0799 7.4Z" fill="#FFC13C"/>
</svg>
