<svg width="32" height="32" viewBox="0 0 32 32" fill="none" xmlns="http://www.w3.org/2000/svg">
<path fill-rule="evenodd" clip-rule="evenodd" d="M31.2555 12.0662H26.6021V5.16606C26.6021 5.11418 26.5964 5.06265 26.5861 5.01254C26.5858 5.01137 26.5855 5.01025 26.5851 5.00915C26.5845 5.00758 26.5839 5.00606 26.5833 5.00454L26.5814 4.99976L26.5804 4.99655C26.5673 4.93826 26.5449 4.88354 26.5179 4.82987C26.5104 4.81459 26.5026 4.80002 26.4937 4.78545C26.4596 4.7293 26.4216 4.67493 26.3729 4.62873L21.9292 0.366988C21.8819 0.321855 21.8279 0.285606 21.7718 0.255399L21.7707 0.254824C21.7565 0.246859 21.743 0.239256 21.7288 0.23301C21.6719 0.206001 21.6136 0.185033 21.5518 0.173305C21.547 0.172352 21.5424 0.172038 21.5377 0.17172L21.5308 0.171173C21.4921 0.164776 21.453 0.160156 21.4142 0.160156H6.14242C5.7316 0.160156 5.39825 0.493505 5.39825 0.904326V12.0654H0.743814C0.545866 12.0654 0.357159 12.144 0.217849 12.2833C0.0785394 12.4226 0 12.6124 0 12.8093V25.4349C0 25.8457 0.333348 26.1791 0.744169 26.1791H5.39896V29.8605C5.39896 30.2713 5.73231 30.6046 6.14313 30.6046H25.8586C26.2695 30.6046 26.6028 30.2713 26.6028 29.8605V26.1791H28.39C30.3809 26.1791 32 24.5603 32 22.5716V12.8103C31.9993 12.3995 31.6663 12.0662 31.2555 12.0662ZM24.0075 4.4219H22.84C22.4637 4.4219 22.1584 4.11591 22.1584 3.74027V2.64854L24.0075 4.4219ZM6.88659 1.6485H20.6704V3.74063C20.6704 4.9372 21.6435 5.91023 22.84 5.91023H25.1138V12.0654H6.88623V1.6485H6.88659ZM30.5113 22.5716C30.5113 23.7401 29.5589 24.6911 28.3893 24.6911H26.6021V21.8658C26.6021 21.455 26.2688 21.1216 25.8579 21.1216C25.4471 21.1216 25.1138 21.455 25.1138 21.8658V25.34L25.1116 25.3552C25.1079 25.3814 25.1042 25.4079 25.1042 25.4353C25.1042 25.4597 25.1075 25.4838 25.1108 25.5077L25.1138 25.5298V29.1167H6.88623V22.6096H22.5205C22.9314 22.6096 23.2647 22.2763 23.2647 21.8655C23.2647 21.4546 22.9314 21.1213 22.5205 21.1213H6.14242C5.7316 21.1213 5.39825 21.4546 5.39825 21.8655V24.6907H1.48763V13.5538L30.511 13.5545V22.5716H30.5113ZM25.8267 17.5092H25.8579C26.2688 17.5092 26.5868 17.1758 26.5868 16.765C26.5868 16.3542 26.2378 16.0208 25.8267 16.0208C25.4155 16.0208 25.0825 16.3542 25.0825 16.765C25.0825 17.1758 25.4158 17.5092 25.8267 17.5092ZM23.0696 17.5092H23.0142C22.6033 17.5092 22.27 17.1758 22.27 16.765C22.27 16.3542 22.6033 16.0208 23.0142 16.0208H23.0696C23.4804 16.0208 23.8138 16.3542 23.8138 16.765C23.8138 17.1758 23.4804 17.5092 23.0696 17.5092ZM20.2258 17.5092H20.2571C20.6679 17.5092 20.986 17.1758 20.986 16.765C20.986 16.3542 20.637 16.0208 20.2258 16.0208C19.8147 16.0208 19.4817 16.3542 19.4817 16.765C19.4817 17.1758 19.815 17.5092 20.2258 17.5092ZM10.0051 25.4164H21.4775C21.8883 25.4164 22.2217 25.7498 22.2217 26.1606C22.2217 26.5714 21.8883 26.9048 21.4775 26.9048H10.0051C9.59423 26.9048 9.26088 26.5714 9.26088 26.1606C9.26088 25.7498 9.59423 25.4164 10.0051 25.4164Z" fill="#422E69"/>
</svg>
